<svg width="445" height="527" viewBox="0 0 445 527" fill="none" xmlns="http://www.w3.org/2000/svg">
<path d="M251.919 486.839V516.421C251.919 518.194 251.365 519.856 250.589 521.296C248.927 524.066 245.936 525.839 242.501 525.839H153.642C151.094 525.839 149.321 523.512 149.654 521.296C149.765 520.521 150.097 519.745 150.762 519.08C157.631 511.879 174.029 499.691 212.143 486.839H251.919V486.839Z" fill="white"/>
<path d="M212.143 486.617C207.933 488.057 204.055 489.387 200.399 490.827C200.177 490.938 199.955 491.049 199.623 491.049C199.401 491.159 199.18 491.27 198.847 491.27C170.594 502.128 156.966 512.1 150.54 518.858C149.986 519.412 149.543 520.188 149.432 520.964C149.432 521.074 149.432 521.185 149.432 521.185C149.211 522.404 149.654 523.623 150.429 524.62C151.205 525.506 152.424 526.06 153.642 526.06H242.501C245.936 526.06 249.038 524.287 250.811 521.407C250.922 521.296 251.033 521.185 251.033 520.964C251.808 519.523 252.141 517.972 252.141 516.421V486.617H212.143ZM251.587 516.421C251.587 518.083 251.143 519.634 250.368 520.964L250.257 521.074C250.257 521.074 250.257 521.185 250.146 521.185C250.035 521.296 250.035 521.407 249.925 521.407C249.925 521.407 249.925 521.518 249.814 521.518C249.703 521.628 249.592 521.85 249.481 521.961C249.26 522.293 248.927 522.626 248.595 522.847C248.484 522.958 248.373 523.069 248.152 523.18C248.041 523.29 247.819 523.401 247.709 523.512C247.598 523.623 247.376 523.734 247.155 523.844C247.044 523.955 246.822 524.066 246.712 524.066C246.601 524.177 246.379 524.287 246.158 524.287C246.047 524.398 245.825 524.398 245.604 524.509C245.493 524.62 245.271 524.62 245.05 524.731C244.939 524.731 244.828 524.841 244.717 524.841C244.606 524.841 244.496 524.952 244.385 524.952C244.163 524.952 244.052 525.063 243.831 525.063C243.277 525.174 242.723 525.174 242.169 525.174H153.31C152.202 525.174 151.205 524.731 150.54 523.955C149.875 523.18 149.543 522.182 149.654 521.185C149.654 521.074 149.654 521.074 149.654 520.964C149.654 520.853 149.654 520.742 149.765 520.742C149.875 520.077 150.208 519.523 150.762 519.08C157.299 512.211 171.148 502.128 200.288 491.049C200.509 490.938 200.731 490.827 201.063 490.827C201.285 490.716 201.507 490.605 201.839 490.605C205.052 489.387 208.487 488.168 212.032 486.949H251.476V516.421H251.587Z" fill="black"/>
<path d="M426.755 434.209L442.488 459.249C443.485 460.801 443.928 462.463 443.928 464.125C443.928 467.338 442.377 470.44 439.496 472.213L364.265 519.523C362.049 520.963 359.39 519.855 358.504 517.75C358.172 517.085 358.061 516.199 358.282 515.313C360.277 505.562 367.7 486.505 393.072 455.372L426.755 434.209Z" fill="white"/>
<path d="M444.261 463.571C444.15 462.02 443.707 460.469 442.82 459.029L428.971 437.202L428.86 436.98L428.749 436.758L427.087 434.099L426.976 433.878L393.073 455.151L392.962 455.261C391.411 457.145 389.97 458.918 388.641 460.69C388.53 460.912 388.308 461.134 388.198 461.244C388.087 461.466 387.865 461.688 387.754 461.798C367.035 488.5 360.166 505.563 358.172 515.313C358.061 516.089 358.061 516.975 358.393 517.64C358.393 517.751 358.504 517.751 358.504 517.861C359.058 518.969 359.944 519.856 361.163 520.188C361.606 520.299 361.939 520.41 362.382 520.41C363.158 520.41 363.933 520.188 364.709 519.745L439.939 472.435C442.82 470.551 444.482 467.449 444.482 464.014C444.261 463.904 444.261 463.682 444.261 463.571ZM443.707 464.568C443.707 464.79 443.707 465.122 443.596 465.455C443.596 465.676 443.485 465.787 443.485 466.009C443.485 466.119 443.485 466.341 443.374 466.452C443.263 466.784 443.153 467.117 443.042 467.449C443.042 467.56 442.931 467.671 442.931 467.781C442.82 468.003 442.82 468.114 442.709 468.335C441.934 469.776 440.826 471.105 439.386 471.992L364.266 519.191C363.379 519.745 362.271 519.967 361.274 519.634C361.052 519.523 360.831 519.413 360.609 519.302C360.498 519.302 360.498 519.191 360.388 519.191C360.277 519.191 360.277 519.08 360.166 519.08C359.944 518.969 359.834 518.859 359.612 518.637C359.501 518.526 359.501 518.415 359.39 518.415C359.28 518.194 359.058 517.972 358.947 517.751C358.947 517.64 358.836 517.64 358.836 517.529C358.836 517.418 358.726 517.418 358.726 517.307C358.504 516.753 358.504 515.978 358.615 515.313C360.609 505.452 367.589 488.279 388.973 460.912C389.084 460.69 389.306 460.469 389.416 460.358C389.527 460.136 389.749 459.915 389.859 459.804C390.967 458.364 392.075 457.034 393.294 455.483L426.644 434.432L428.195 436.869L428.306 437.091L428.417 437.312L442.155 459.139C443.042 460.469 443.485 462.131 443.485 463.682V463.793V463.904C443.707 464.347 443.707 464.458 443.707 464.568Z" fill="black"/>
<path d="M443.929 464.015C443.929 467.228 442.377 470.33 439.497 472.103L364.266 519.413C362.05 520.853 359.391 519.745 358.504 517.64L443.929 464.015Z" fill="white"/>
<path d="M444.261 463.572L444.039 463.793L443.818 463.904L358.837 517.308L358.615 517.419L358.394 517.529L358.504 517.751C359.058 518.859 359.945 519.745 361.163 520.078C361.607 520.189 361.939 520.299 362.382 520.299C363.158 520.299 363.933 520.078 364.709 519.635L439.94 472.324C442.82 470.441 444.482 467.339 444.482 463.904L444.261 463.572ZM361.163 519.635C360.942 519.524 360.72 519.413 360.499 519.302C360.388 519.302 360.388 519.191 360.277 519.191C360.166 519.191 360.166 519.081 360.055 519.081C359.834 518.97 359.723 518.859 359.501 518.637C359.391 518.527 359.391 518.416 359.28 518.416C359.169 518.194 358.947 517.973 358.837 517.751L443.596 464.458C443.596 464.79 443.596 465.012 443.485 465.344C443.485 465.566 443.485 465.677 443.374 465.898C443.374 466.009 443.374 466.231 443.264 466.341C443.153 466.674 443.042 467.006 442.931 467.339C442.931 467.449 442.82 467.56 442.82 467.671C442.71 467.893 442.71 468.003 442.599 468.225C441.823 469.665 440.715 470.995 439.275 471.881L364.266 519.191C363.269 519.856 362.161 519.967 361.163 519.635Z" fill="black"/>
<g filter="url(#filter0_d_102_28)">
<path d="M148.546 76.7803C153.502 76.7803 157.52 72.7623 157.52 67.8058C157.52 62.8493 153.502 58.8313 148.546 58.8313C143.589 58.8313 139.571 62.8493 139.571 67.8058C139.571 72.7623 143.589 76.7803 148.546 76.7803Z" fill="#FCBA28"/>
<path d="M148.546 58.4993C143.449 58.4993 139.239 62.7095 139.239 67.8062V67.917C139.35 73.0136 143.449 77.0023 148.546 77.0023C153.643 77.0023 157.742 72.9028 157.742 67.917V67.8062C157.853 62.7095 153.643 58.4993 148.546 58.4993ZM157.299 67.917C157.188 72.6812 153.31 76.4483 148.657 76.4483C143.892 76.4483 140.015 72.6812 139.904 67.917V67.8062C139.904 63.0419 143.782 59.0533 148.657 59.0533C153.421 59.0533 157.299 62.9311 157.299 67.8062V67.917Z" fill="#FCBA28"/>
</g>
<path d="M213.029 168.852L195.413 164.864C194.859 164.753 194.416 164.531 194.083 164.199C195.745 160.321 207.046 155.114 204.055 150.239C203.612 149.574 202.836 149.131 201.728 149.02C201.95 144.809 200.177 143.148 197.629 142.926C199.18 139.27 198.737 135.503 192.2 136.389C190.649 136.611 189.097 137.275 187.657 138.162L183.558 119.659C183.114 117.443 184.998 115.559 187.214 116.002L204.831 119.991C205.938 120.213 206.825 121.099 207.157 122.318L210.924 138.937L216.797 165.196C217.129 167.412 215.135 169.296 213.029 168.852Z" fill="#C03221"/>
<path d="M194.97 374.158L198.404 302.916H230.978L222.115 374.158H194.97Z" fill="black"/>
<path d="M202.725 302.916L202.615 303.138H222.669L222.779 302.916H202.725ZM198.183 302.695V302.916V303.138L197.629 313.885V314.439L194.97 371.278L194.859 373.715V373.937V374.158H222.447L231.422 302.695V302.473H198.183V302.695ZM198.183 313.996L198.737 303.249H230.757L221.893 373.937H195.302L198.183 314.661V313.996ZM202.725 302.916L202.615 303.138H222.669L222.779 302.916H202.725ZM202.725 302.916L202.615 303.138H222.669L222.779 302.916H202.725Z" fill="white"/>
<path d="M194.748 374.712H222.336L231.311 302.916H191.867L194.748 374.712Z" fill="#C03221"/>
<path d="M202.725 302.916L202.615 303.137H222.669L222.78 302.916H202.725ZM202.725 302.916L202.615 303.137H222.669L222.78 302.916H202.725ZM191.535 302.694V303.248L191.978 313.996V314.55L194.416 373.826V374.38V374.934H222.558L231.643 302.583H191.535V302.694ZM192.532 313.996L192.089 303.248H230.978L222.004 374.49H194.97V374.269V374.047L194.859 371.61L192.532 314.771V313.996ZM202.725 302.916L202.615 303.137H222.669L222.78 302.916H202.725Z" fill="white"/>
<path d="M190.205 374.158C186.992 374.158 184.444 371.61 184.444 368.397V308.678C184.444 305.465 186.992 302.916 190.205 302.916H198.183C201.396 302.916 203.944 305.465 203.944 308.678V368.286C203.944 371.499 201.396 374.048 198.183 374.048H190.205V374.158Z" fill="#C03221"/>
<path d="M200.62 303.249C200.399 303.138 200.177 303.027 199.845 303.027C199.291 302.805 198.737 302.805 198.072 302.805H190.094C186.771 302.805 184.001 305.575 184.001 308.899V368.508C184.001 371.832 186.66 374.602 190.094 374.602H198.072C198.183 374.602 198.183 374.602 198.293 374.602C198.847 374.602 199.401 374.491 199.955 374.38C200.177 374.269 200.399 374.269 200.62 374.158C202.725 373.161 204.166 371.056 204.166 368.619V308.678C204.166 306.24 202.725 304.135 200.62 303.249ZM203.612 368.397C203.612 371.388 201.174 373.937 198.072 373.937H190.094C187.103 373.937 184.555 371.499 184.555 368.397V308.678C184.555 305.686 186.992 303.138 190.094 303.138H198.072C198.183 303.138 198.293 303.138 198.293 303.138C198.404 303.138 198.515 303.138 198.515 303.138C201.285 303.359 203.501 305.797 203.501 308.567V368.397H203.612Z" fill="white"/>
<path d="M435.398 433.102L363.269 475.98C363.269 475.98 316.07 432.548 299.007 414.488C283.607 398.09 281.169 390.556 281.169 365.405C250.811 471.77 256.351 491.049 256.351 491.049H186.217L235.521 238.211L225.993 246.742L225.771 246.853L214.802 256.714L214.581 256.825L214.47 256.936C201.063 268.902 179.901 259.484 179.901 241.535C179.901 211.731 179.901 178.713 179.901 178.602C180.012 178.381 218.68 193.892 218.68 193.892V198.103C233.859 183.145 242.501 175.279 250.811 171.29C250.811 171.29 250.922 171.29 250.922 171.179C253.47 169.96 255.908 169.074 258.567 168.52C258.678 168.52 258.788 168.52 258.899 168.409H259.01C269.536 166.193 280.172 167.744 280.172 167.744H291.252C291.252 167.744 305.212 167.634 312.525 169.296C325.377 172.287 329.809 180.929 354.849 235.884C355.957 238.433 357.065 240.981 358.173 243.529C363.048 255.163 354.738 268.126 342.107 268.569C339.005 268.68 336.789 268.68 336.789 268.68L393.628 385.238H383.434C383.545 385.349 403.932 419.806 435.398 433.102Z" fill="#006D77"/>
<path d="M235.743 237.657L235.41 237.989L226.768 245.745L226.325 246.188L225.882 246.631L225.66 247.185L225.993 246.964L226.214 246.742L225.993 247.185L225.882 247.296L226.325 246.853L235.189 238.876L222.779 302.584V302.805L222.669 303.027H223.223V302.805V302.584L235.743 238.1L235.853 237.324L235.743 237.657ZM217.35 193.449C216.353 193.006 214.691 192.341 212.697 191.565C212.254 191.344 211.811 191.233 211.257 191.011C210.481 190.679 209.816 190.458 208.93 190.125C208.708 190.014 208.376 189.904 208.154 189.793C207.6 189.571 207.046 189.35 206.492 189.128C206.271 189.017 206.049 188.906 205.828 188.906C205.606 188.796 205.384 188.685 205.163 188.685C204.166 188.352 203.169 187.909 202.171 187.466C201.617 187.244 200.953 187.023 200.399 186.801C198.626 186.136 196.853 185.361 195.08 184.696C194.637 184.474 194.194 184.364 193.751 184.142C192.754 183.699 191.756 183.367 190.87 183.034C190.316 182.813 189.873 182.591 189.319 182.48C189.319 182.591 189.43 182.702 189.43 182.813C197.739 186.136 209.705 190.79 217.683 194.114C217.683 194.003 217.683 193.892 217.794 193.892C217.683 193.56 217.572 193.449 217.35 193.449ZM235.743 237.657L235.41 237.989L226.768 245.745L226.325 246.188L225.882 246.631L225.66 247.185L225.993 246.964L226.214 246.742L225.993 247.185L225.882 247.296L226.325 246.853L235.189 238.876L222.779 302.584V302.805L222.669 303.027H223.223V302.805V302.584L235.743 238.1L235.853 237.324L235.743 237.657ZM212.808 191.565C212.365 191.344 211.921 191.233 211.367 191.011C210.592 190.679 209.927 190.458 209.041 190.125C208.819 190.014 208.487 189.904 208.265 189.793C207.711 189.571 207.157 189.35 206.603 189.128C206.382 189.017 206.16 188.906 205.938 188.906C205.717 188.796 205.495 188.685 205.274 188.685C204.276 188.352 203.279 187.909 202.282 187.466C201.728 187.244 201.063 187.023 200.509 186.801C198.737 186.136 196.964 185.361 195.191 184.696C194.748 184.474 194.305 184.364 193.862 184.142C192.864 183.699 191.867 183.367 190.981 183.034C190.427 182.813 189.984 182.591 189.43 182.48C189.43 182.591 189.541 182.702 189.541 182.813C197.85 186.136 209.816 190.79 217.794 194.114C217.794 194.003 217.794 193.892 217.904 193.892C217.794 193.892 217.683 193.781 217.461 193.781C216.353 193.006 214.691 192.341 212.808 191.565ZM435.509 432.769C406.369 420.471 386.537 389.559 384.099 385.57H394.182L364.931 325.74L364.71 325.186L337.343 269.012C338.119 269.012 339.891 268.901 342.218 268.901C348.312 268.68 353.741 265.688 357.065 260.481C360.167 255.717 360.832 249.955 358.948 244.637C358.948 244.415 358.838 244.305 358.727 244.083C358.616 243.861 358.616 243.64 358.505 243.529C357.508 241.092 356.4 238.543 355.181 235.884C354.406 234.111 353.519 232.339 352.744 230.566C352.633 230.344 352.522 230.233 352.522 230.012C330.03 180.597 325.377 172.065 312.635 169.074C309.865 168.409 306.098 168.077 302.553 167.855C302.331 167.855 302.221 167.855 301.999 167.855C299.34 167.744 296.902 167.633 295.019 167.633C294.797 167.633 294.576 167.633 294.465 167.633C292.914 167.633 291.916 167.633 291.584 167.633H280.394C280.283 167.633 275.297 166.969 268.871 167.19C268.76 167.19 268.649 167.19 268.538 167.19C268.428 167.19 268.317 167.19 268.206 167.19C267.32 167.19 266.433 167.301 265.547 167.412C265.325 167.412 265.104 167.412 264.882 167.523C262.999 167.633 261.004 167.966 259.121 168.409C259.01 168.409 259.01 168.409 259.01 168.409C258.899 168.409 258.788 168.409 258.678 168.52C257.57 168.741 256.572 169.074 255.464 169.406C254.91 169.628 254.246 169.739 253.692 169.96C252.695 170.293 251.808 170.736 250.922 171.179C250.922 171.179 250.811 171.179 250.811 171.29C242.723 175.168 234.081 182.923 219.123 197.659V193.892L219.012 193.781C218.902 193.671 218.68 193.671 218.569 193.56C218.348 193.449 218.237 193.449 218.015 193.338C203.833 187.688 194.97 184.142 189.43 181.926C189.208 181.815 188.987 181.815 188.765 181.705C180.234 178.381 180.123 178.381 180.012 178.491L179.901 178.602V178.713C179.901 178.824 179.79 184.364 179.901 241.756C179.901 250.177 184.665 257.489 192.421 260.924C199.845 264.248 208.265 263.029 214.47 257.822C214.581 257.711 214.802 257.6 214.913 257.379C214.913 257.379 215.024 257.379 215.024 257.268L215.356 256.935L225.549 247.739L225.993 247.296L226.436 246.853L235.299 238.876L222.89 302.584V302.805L222.779 303.027L209.041 373.715V373.936V374.158L208.93 374.38V374.601L186.217 490.938H257.016L256.905 490.605C256.905 490.384 251.808 470.329 281.169 366.956C281.28 391.11 284.272 398.422 299.118 414.266C315.959 432.215 362.826 475.315 363.38 475.758L363.491 475.869L387.866 461.355L388.531 460.912L389.196 460.579L428.75 437.09L428.972 436.98L429.193 436.869L435.73 432.991L436.174 432.769H435.509ZM389.861 459.804L389.196 460.136L388.531 460.579L363.269 475.537C360.278 472.767 315.627 431.551 299.229 414.156C284.161 398.09 281.502 390.778 281.502 365.294V363.3L280.948 365.184C253.027 463.128 255.575 487.614 256.018 490.716H186.549L206.825 386.567L206.936 386.013L209.151 374.934V374.712V374.49L209.262 374.269V374.047L223.112 303.359V303.138V302.916L235.632 238.432L235.743 237.657L235.41 237.989L235.078 238.322L226.436 246.077L225.993 246.521L225.549 246.964L215.356 256.16L214.359 257.046L214.248 257.157L214.137 257.268C208.044 262.697 199.623 264.026 192.089 260.702C184.555 257.379 179.901 250.177 179.901 241.978C179.901 215.608 179.901 183.034 179.901 179.378C180.898 179.71 184.111 180.929 188.433 182.702C188.654 182.813 188.876 182.923 189.097 182.923C197.407 186.247 209.373 190.901 217.35 194.225C217.572 194.335 217.683 194.335 217.904 194.446C218.015 194.446 218.015 194.557 218.126 194.557V199.321L218.569 198.878C218.569 198.878 218.569 198.767 218.68 198.767C233.527 184.142 242.169 176.276 250.146 172.287C250.257 172.176 250.368 172.176 250.479 172.065C250.479 172.065 250.589 172.065 250.589 171.954C250.7 171.954 250.7 171.844 250.811 171.844C251.365 171.511 252.03 171.29 252.584 171.068C252.916 170.957 253.248 170.847 253.47 170.736C254.135 170.514 254.689 170.293 255.354 170.071C255.464 170.071 255.575 169.96 255.686 169.96C256.24 169.849 256.683 169.628 257.237 169.517C257.57 169.406 257.902 169.406 258.234 169.295H258.345C258.456 169.295 258.456 169.295 258.567 169.295C258.567 169.295 258.567 169.295 258.678 169.295C258.788 169.295 258.788 169.295 258.899 169.295C260.672 168.963 262.445 168.631 264.217 168.52C264.439 168.52 264.661 168.52 264.882 168.409C265.879 168.298 266.766 168.298 267.763 168.187C267.874 168.187 267.984 168.187 268.095 168.187C268.206 168.187 268.317 168.187 268.428 168.187C274.854 167.966 279.95 168.631 280.061 168.631H291.363C291.806 168.631 292.914 168.631 294.465 168.631H295.019C296.902 168.631 299.34 168.741 301.777 168.852C301.999 168.852 302.11 168.852 302.331 168.852C305.877 169.074 309.533 169.406 312.303 170.071C324.712 172.952 329.366 181.483 351.636 230.455C351.747 230.677 351.857 230.787 351.857 231.009C352.633 232.782 353.519 234.665 354.406 236.549C355.624 239.097 356.732 241.645 357.73 244.194C357.73 244.305 357.84 244.415 357.84 244.526C357.951 244.748 357.951 244.859 358.062 245.08C359.946 250.288 359.281 255.938 356.289 260.702C353.076 265.688 347.869 268.68 341.886 268.791C338.894 268.901 336.789 268.901 336.678 268.901H336.235L336.457 269.455L363.823 325.629L364.045 326.183L392.963 385.459H382.77L382.991 385.903C382.991 385.903 382.991 385.902 383.102 386.013C384.542 388.34 404.596 420.582 434.401 433.434L428.307 436.98L428.085 437.09L427.864 437.201L389.861 459.804ZM217.35 193.449C216.353 193.006 214.691 192.341 212.697 191.565C212.254 191.344 211.811 191.233 211.257 191.011C210.481 190.679 209.816 190.458 208.93 190.125C208.708 190.014 208.376 189.904 208.154 189.793C207.6 189.571 207.046 189.35 206.492 189.128C206.271 189.017 206.049 188.906 205.828 188.906C205.606 188.796 205.384 188.685 205.163 188.685C204.166 188.352 203.169 187.909 202.171 187.466C201.617 187.244 200.953 187.023 200.399 186.801C198.626 186.136 196.853 185.361 195.08 184.696C194.637 184.474 194.194 184.364 193.751 184.142C192.754 183.699 191.756 183.367 190.87 183.034C190.316 182.813 189.873 182.591 189.319 182.48C189.319 182.591 189.43 182.702 189.43 182.813C197.739 186.136 209.705 190.79 217.683 194.114C217.683 194.003 217.683 193.892 217.794 193.892C217.683 193.56 217.572 193.449 217.35 193.449ZM235.743 237.657L235.41 237.989L226.768 245.745L226.325 246.188L225.882 246.631L225.66 247.185L225.993 246.964L226.214 246.742L225.993 247.185L225.882 247.296L226.325 246.853L235.189 238.876L222.779 302.584V302.805L222.669 303.027H223.223V302.805V302.584L235.743 238.1L235.853 237.324L235.743 237.657Z" fill="white"/>
<path d="M298.342 233.225L297.788 233.114L306.319 207.742L295.572 203.31L306.319 198.103L293.245 164.864L293.799 164.642L306.984 198.324L296.902 203.31L306.984 207.52L298.342 233.225Z" fill="white"/>
<path d="M261.779 209.072L250.81 199.654L266.876 162.648L267.43 162.87L251.475 199.543L262.111 208.739L261.779 209.072Z" fill="white"/>
<path d="M291.362 167.966L290.808 233.225H285.6V233.558C283.827 233.004 281.501 232.006 279.396 230.455C275.961 227.907 274.077 226.467 268.316 226.245L269.867 212.174H262.998L266.654 173.617C266.654 173.617 268.094 179.157 276.404 178.713C284.935 178.27 289.81 173.949 291.362 167.966Z" fill="white"/>
<path d="M291.029 268.681V286.076H255.796L258.344 261.479C265.878 262.698 273.413 260.482 279.728 260.039C281.501 259.928 283.717 260.371 285.6 260.925V268.57L291.029 268.681Z" fill="white"/>
<path d="M176.356 67.9171H120.847C121.844 53.5136 133.921 42.1016 148.546 42.1016C163.282 42.1016 175.359 53.4028 176.356 67.9171Z" fill="#D3D5D7"/>
<path d="M79.9629 405.071H74.4231V38.7774C74.4231 17.6153 91.7074 0.331055 112.869 0.331055C134.032 0.331055 151.316 17.6153 151.316 38.7774V53.0702H145.776V38.7774C145.776 20.6068 131.04 5.87087 112.869 5.87087C94.6989 5.87087 79.9629 20.6068 79.9629 38.7774V405.071V405.071Z" fill="#D3D5D7"/>
<path d="M77.1929 176.165H51.7097" stroke="#D3D5D7"/>
<path d="M52.2098 173.896H76.693V178.435H52.2098V173.896Z" fill="#D3D5D7" stroke="#D3D5D7"/>
<path d="M58.9118 188.242H7.94539C3.73512 188.242 0.189636 184.807 0.189636 180.486V171.622C0.189636 167.412 3.62433 163.867 7.94539 163.867H58.9118C63.122 163.867 66.6675 167.301 66.6675 171.622V180.486C66.6675 184.807 63.2328 188.242 58.9118 188.242Z" fill="white"/>
<path d="M58.9115 163.756H8.0559C3.62404 163.756 0.0785522 167.301 0.0785522 171.733V180.597C0.0785522 185.029 3.62404 188.574 8.0559 188.574H58.9115C63.3433 188.574 66.8888 185.029 66.8888 180.597V171.733C66.8888 167.301 63.3433 163.756 58.9115 163.756ZM66.3348 180.597C66.3348 184.696 63.0109 188.02 58.9115 188.02H8.0559C3.95643 188.02 0.632535 184.696 0.632535 180.597V171.733C0.632535 167.634 3.95643 164.31 8.0559 164.31H58.9115C63.0109 164.31 66.3348 167.634 66.3348 171.733V180.597Z" fill="#D3D5D7"/>
<path d="M87.7184 349.672H81.0707H73.3149H66.6671L49.826 481.963H73.3149H81.0707H104.56L87.7184 349.672Z" fill="#D3D5D7"/>
<path d="M272.083 174.503C272.083 174.503 269.756 181.816 273.634 184.364C277.512 186.913 282.941 178.16 280.06 173.617C276.736 168.41 272.083 174.503 272.083 174.503Z" fill="#C03221"/>
<path d="M273.967 181.705L265.878 223.254L265.435 228.905L273.523 233.891L282.719 224.694L276.736 181.373L273.967 181.705Z" fill="#C03221"/>
<path d="M219.012 198.214H218.458V227.464H219.012V198.214Z" fill="white"/>
<path d="M237.958 225.994L235.366 238.129L235.908 238.245L238.5 226.11L237.958 225.994Z" fill="white"/>
<path d="M259.121 168.631L226.214 246.743L225.993 247.186L202.504 302.916H195.524L214.802 257.157L215.024 256.714L251.033 171.29C253.581 170.071 256.019 169.185 258.678 168.631C258.788 168.631 258.899 168.631 259.01 168.52C259.01 168.631 259.01 168.631 259.121 168.631Z" fill="#C03221"/>
<path d="M225.882 247.296L225.993 247.186L226.214 246.743L225.993 246.964L225.66 247.186L225.439 247.74L202.282 302.584H198.183C198.848 302.584 199.402 302.695 199.956 302.806C200.177 302.916 200.399 303.027 200.731 303.027H202.725L202.836 302.806L202.947 302.584L226.436 246.853L225.882 247.296ZM225.882 247.296L225.993 247.186L226.214 246.743L225.993 246.964L225.66 247.186L225.439 247.74L202.282 302.584H198.183C198.848 302.584 199.402 302.695 199.956 302.806C200.177 302.916 200.399 303.027 200.731 303.027H202.725L202.836 302.806L202.947 302.584L226.436 246.853L225.882 247.296ZM259.01 168.299C258.899 168.299 258.899 168.299 258.899 168.299C258.788 168.299 258.678 168.299 258.567 168.409C257.459 168.631 256.462 168.963 255.354 169.296C254.8 169.517 254.135 169.628 253.581 169.85C252.584 170.182 251.697 170.625 250.811 171.068H250.7L250.589 171.401L250.479 171.733L214.691 256.603V256.714L214.47 257.268L214.248 257.822L195.302 302.695L195.191 302.916L195.08 303.138H202.615L202.725 302.916L202.836 302.695L226.325 246.964L226.547 246.41L226.768 245.856L259.232 168.963V168.853L259.342 168.631L259.453 168.409H259.01V168.299ZM225.882 246.632L225.66 247.186L225.439 247.74L202.282 302.584H195.967L215.245 256.825L215.467 256.271L215.689 255.717L251.254 171.512C251.808 171.179 252.473 170.958 253.027 170.736C253.359 170.625 253.692 170.515 253.913 170.404C254.578 170.182 255.132 169.961 255.797 169.739C255.908 169.739 256.019 169.628 256.129 169.628C256.683 169.517 257.126 169.296 257.68 169.185C258.013 169.074 258.345 169.074 258.678 168.963L225.882 246.632ZM225.882 247.296L225.993 247.186L226.214 246.743L225.993 246.964L225.66 247.186L225.439 247.74L202.282 302.584H198.183C198.848 302.584 199.402 302.695 199.956 302.806C200.177 302.916 200.399 303.027 200.731 303.027H202.725L202.836 302.806L202.947 302.584L226.436 246.853L225.882 247.296Z" fill="white"/>
<path d="M184.444 314.218V308.678C184.444 305.465 186.992 302.916 190.205 302.916H198.183C201.396 302.916 203.944 305.465 203.944 308.678V314.218H184.444Z" fill="#C03221"/>
<path d="M200.62 303.249C200.399 303.138 200.177 303.027 199.845 303.027C199.291 302.805 198.737 302.805 198.072 302.805H190.094C186.771 302.805 184.001 305.575 184.001 308.899V314.771H204.166V308.678C204.166 306.24 202.725 304.135 200.62 303.249ZM203.612 313.996H184.665V308.678C184.665 305.686 187.103 303.138 190.205 303.138H198.183C198.293 303.138 198.404 303.138 198.404 303.138C198.515 303.138 198.626 303.138 198.626 303.138C201.396 303.359 203.612 305.797 203.612 308.567V313.996V313.996Z" fill="white"/>
<path d="M217.572 197.771H217.018C217.018 197.217 219.345 185.805 219.788 184.697C219.898 184.475 220.12 184.143 220.452 183.7C221.782 181.927 224.441 178.382 224.441 171.512C224.441 164.864 222.336 160.543 220.452 156.776C219.234 154.45 218.237 152.234 217.683 149.685L217.572 149.02C216.796 144.921 215.91 140.378 213.251 139.27C211.589 138.606 209.373 139.381 206.603 141.376L206.271 140.932C209.262 138.716 211.589 137.941 213.472 138.716C216.464 139.935 217.35 144.699 218.126 148.91L218.237 149.574C218.68 152.012 219.788 154.228 220.896 156.444C222.779 160.211 224.995 164.532 224.995 171.401C224.995 178.492 222.225 182.149 220.896 183.921C220.563 184.254 220.342 184.586 220.342 184.808C219.898 186.027 217.572 197.217 217.572 197.771Z" fill="black"/>
<path d="M190.981 190.901C190.427 188.131 189.651 185.14 188.765 182.038C186.881 175.057 184.887 167.745 185.552 162.316C185.773 160.765 186.106 159.435 186.66 158.327C187.657 156.554 189.097 154.782 190.87 153.23C194.305 150.239 198.847 148.466 201.728 148.688C202.836 148.799 203.722 149.242 204.165 150.017C206.271 153.341 202.282 156.665 198.736 159.546C196.742 161.208 194.859 162.87 194.305 164.199C194.194 164.421 194.083 164.642 194.083 164.975H193.529C193.529 164.642 193.64 164.31 193.751 164.088C194.415 162.537 196.299 160.986 198.404 159.213C201.949 156.333 205.495 153.23 203.722 150.35C203.39 149.796 202.614 149.353 201.617 149.242C198.847 148.909 194.526 150.793 191.202 153.674C189.429 155.114 188.1 156.887 187.103 158.549C186.549 159.546 186.216 160.875 185.995 162.316C185.33 167.634 187.324 174.836 189.208 181.816C190.094 185.029 190.87 188.021 191.424 190.79L190.981 190.901Z" fill="black"/>
<path d="M185.663 162.538C183.89 160.876 182.117 158.438 183.557 153.674C183.668 153.452 183.779 153.12 183.779 152.787C184.665 150.461 186.66 147.912 189.208 146.029C192.089 143.813 195.191 142.594 197.518 142.705C199.291 142.816 202.171 143.702 201.839 149.02H201.285C201.506 145.364 200.177 143.37 197.407 143.259C195.191 143.148 192.2 144.367 189.43 146.361C186.881 148.245 184.998 150.682 184.222 152.898C184.111 153.231 184.001 153.452 184.001 153.785C182.671 158.327 184.333 160.654 185.995 162.094L185.663 162.538Z" fill="black"/>
<path d="M183.668 153.895C181.674 152.676 180.566 150.904 180.566 148.577C180.566 144.921 183.447 140.489 187.546 137.94C189.097 136.943 190.648 136.389 192.199 136.168C195.08 135.724 196.964 136.168 197.961 137.497C198.958 138.716 198.847 140.71 197.85 143.037L197.296 142.815C197.85 141.597 198.515 139.27 197.407 137.83C196.521 136.722 194.748 136.389 192.089 136.722C190.648 136.943 189.208 137.497 187.657 138.384C183.779 140.821 180.898 145.142 180.898 148.577C180.898 150.682 181.895 152.233 183.779 153.341L183.668 153.895Z" fill="black"/>
<path d="M258.344 211.177L271.418 208.85L268.759 204.75H258.344H258.233H247.708L245.159 208.85L258.233 211.177V211.287V211.177L258.344 211.287V211.177Z" fill="white"/>
<path d="M271.64 208.85L271.529 208.628L269.424 205.194L268.981 204.529H247.708L245.159 208.628L245.049 208.85L244.827 209.071H245.049H245.27L245.492 209.182L258.012 211.398V211.509L258.344 211.398L258.677 211.509V211.398L263.33 210.512L268.537 209.625L271.197 209.182L271.418 209.071H271.64H271.861L271.64 208.85ZM268.537 209.071L268.205 209.182L263.219 210.069L258.233 210.955L248.262 209.182L246.71 208.961L245.603 208.739V208.628L247.818 205.083H268.537L269.202 206.08L270.864 208.739V208.85L269.756 209.071H268.537Z" fill="black"/>
<path d="M291.362 167.966C289.81 173.949 284.935 178.27 276.626 178.713C268.316 179.157 266.876 173.617 266.876 173.617C269.313 166.193 270.753 154.449 270.753 154.449L287.04 146.915C285.933 161.983 291.362 167.966 291.362 167.966Z" fill="white"/>
<path d="M291.583 167.745C291.583 167.745 291.472 167.745 291.583 167.745C290.918 166.969 287.816 162.759 287.151 153.674C287.151 153.563 287.151 153.341 287.151 153.23C287.151 153.12 287.151 152.898 287.151 152.787C287.04 151.014 287.04 149.131 287.262 147.026V146.804V146.583L285.711 147.358L270.421 154.338V154.449C270.421 154.449 270.199 155.889 269.978 158.105C269.978 158.216 269.978 158.327 269.978 158.438C269.978 158.549 269.978 158.659 269.978 158.659C269.645 161.097 269.091 164.199 268.427 167.301C268.427 167.412 268.427 167.523 268.316 167.523C268.316 167.634 268.316 167.745 268.205 167.855C267.762 169.85 267.208 171.844 266.654 173.506V173.617V173.728C266.654 173.728 266.765 173.949 266.876 174.282C267.319 175.279 268.537 177.273 271.529 178.381C272.637 178.824 274.077 179.046 275.85 179.046C276.182 179.046 276.404 179.046 276.736 179.046C278.177 178.935 279.617 178.824 280.836 178.492C286.154 177.273 289.921 173.949 291.472 169.074C291.583 168.853 291.583 168.631 291.694 168.409C291.694 168.299 291.694 168.299 291.805 168.188V168.077V167.966L291.583 167.745ZM291.029 167.966C291.029 168.077 291.029 168.077 290.918 168.188C289.478 173.174 285.933 176.387 280.725 177.716C279.396 178.049 277.955 178.27 276.515 178.381C274.41 178.492 272.748 178.16 271.418 177.716C268.094 176.498 267.208 174.06 267.097 173.506C267.651 171.733 268.205 169.739 268.648 167.745C268.648 167.634 268.648 167.523 268.759 167.412C268.759 167.301 268.759 167.191 268.759 167.191C269.424 164.199 269.978 161.208 270.31 158.881C270.31 158.77 270.31 158.659 270.31 158.659C270.31 158.549 270.31 158.438 270.31 158.438C270.532 156.554 270.753 155.225 270.864 154.781L286.597 147.58C286.487 149.796 286.487 151.901 286.597 153.674C286.597 153.784 286.597 153.895 286.597 154.117C286.597 154.227 286.597 154.338 286.597 154.56C287.262 162.537 289.81 166.637 290.697 167.855C290.808 167.745 290.918 167.855 291.029 167.966Z" fill="#D3D5D7"/>
<path d="M281.501 303.47H280.947V365.294H281.501V303.47Z" fill="white"/>
<path d="M383.544 385.681H290.808V268.68H291.362V385.127H383.544V385.681Z" fill="white"/>
<path d="M245.603 386.568H206.824V386.014H245.049L258.012 261.589H258.566L245.603 386.568Z" fill="white"/>
<path d="M279.396 230.455C275.961 227.907 274.077 226.467 268.316 226.245L267.873 230.566C264.77 229.68 261.225 229.347 257.79 229.237C254.245 229.237 251.032 229.569 248.483 230.123C243.83 231.12 242.5 235.774 246.267 238.322C242.833 242.2 243.941 245.967 246.6 248.072V248.183C245.27 254.055 248.594 259.041 255.463 261.035C256.461 261.368 257.347 261.589 258.344 261.7C265.878 262.919 273.413 260.592 279.728 260.26C281.501 260.149 283.717 260.592 285.6 261.146V233.668C283.827 232.893 281.501 232.007 279.396 230.455Z" fill="white"/>
<path d="M336.899 269.123L285.379 269.013V232.893H325.93V233.447H285.932V268.459H291.029L336.899 268.57V269.123Z" fill="white"/>
<path d="M269.978 212.063L267.873 230.455C264.77 229.569 261.225 229.237 257.79 229.126C254.245 229.126 251.031 229.458 248.483 230.012L246.489 212.063H269.978V212.063Z" fill="#C03221"/>
<path d="M268.094 226.467L267.651 230.123C267.762 230.123 267.762 230.123 267.873 230.123C267.873 230.123 267.873 230.123 267.983 230.123L268.427 226.467C268.205 226.467 268.205 226.467 268.094 226.467ZM268.094 226.467L267.651 230.123H267.54C267.651 230.123 267.762 230.123 267.873 230.234C267.873 230.234 267.873 230.234 267.983 230.234L268.427 226.577C268.205 226.467 268.205 226.467 268.094 226.467ZM246.267 211.842L246.489 214.279V214.611V214.833L248.151 229.791V230.012L248.262 230.234H248.483C251.142 229.68 254.466 229.347 257.679 229.347C261.336 229.347 264.881 229.791 267.651 230.566L267.983 230.677V230.455V230.123L268.427 226.356V226.134V225.913L269.645 214.833V214.611V214.279L269.867 211.842H246.267V211.842ZM269.424 214.279V214.611V214.833L268.205 225.913L268.094 226.467L267.651 230.123H267.54C267.429 230.123 267.319 230.123 267.208 230.012C266.875 229.901 266.432 229.791 266.1 229.791C265.878 229.791 265.768 229.68 265.546 229.68C265.546 229.68 265.546 229.68 265.435 229.68C265.103 229.68 264.77 229.569 264.438 229.569C262.333 229.237 260.117 229.015 257.79 229.015C256.904 229.015 256.017 229.015 255.131 229.126C254.355 229.126 253.691 229.237 253.026 229.237C251.586 229.347 250.145 229.569 248.816 229.791L247.154 214.944V214.722V214.39L246.932 212.506H269.756L269.424 214.279ZM268.094 226.467L267.651 230.123C267.762 230.123 267.762 230.123 267.873 230.123C267.873 230.123 267.873 230.123 267.983 230.123L268.427 226.467C268.205 226.467 268.205 226.467 268.094 226.467Z" fill="white"/>
<path d="M252.029 250.067C250.034 250.067 248.04 249.402 246.489 248.073C244.938 246.854 244.051 245.303 243.83 243.53C243.719 241.647 244.384 239.763 246.046 237.88V237.769L246.489 238.212C244.938 239.985 244.273 241.757 244.384 243.419C244.494 244.971 245.381 246.411 246.821 247.519C248.705 249.07 251.364 249.735 253.691 249.181L253.801 249.735C253.247 250.067 252.583 250.067 252.029 250.067Z" fill="black"/>
<path d="M290.032 262.919C289.81 262.808 287.927 261.922 285.489 261.257C283.938 260.814 281.611 260.26 279.728 260.371C277.623 260.482 275.407 260.814 273.08 261.146C268.316 261.811 263.33 262.587 258.344 261.7C257.347 261.59 256.35 261.368 255.463 261.036C248.594 258.93 245.159 253.945 246.489 247.851L247.043 247.962C245.824 253.723 249.037 258.598 255.685 260.482C256.682 260.814 257.568 261.036 258.566 261.146C263.551 262.033 268.426 261.257 273.191 260.592C275.517 260.26 277.733 259.928 279.839 259.817C281.833 259.706 284.16 260.26 285.822 260.703C288.148 261.368 290.253 262.254 290.586 262.476L290.032 262.919Z" fill="black"/>
<path d="M288.702 234.555C288.702 234.555 287.373 234.334 285.489 233.78C283.052 233.004 280.947 231.896 279.174 230.677L278.952 230.456C275.628 228.018 273.856 226.689 268.316 226.467C266.321 226.356 263.995 226.467 260.782 226.689V226.135C263.995 225.913 266.432 225.913 268.427 225.913C274.188 226.135 276.071 227.575 279.395 230.013L279.617 230.234C281.279 231.453 283.384 232.561 285.711 233.336C287.484 233.89 288.813 234.112 288.813 234.112L288.702 234.555Z" fill="black"/>
<path d="M253.247 240.206C249.591 240.206 247.375 239.319 246.156 238.544C244.383 237.325 243.608 235.663 243.94 233.89C244.273 231.896 246.045 230.345 248.483 229.902C251.253 229.348 254.577 229.015 257.79 229.015C261.557 229.015 264.991 229.459 267.983 230.345C269.534 230.788 270.974 231.342 272.082 232.007L271.861 232.45C270.753 231.785 269.313 231.231 267.872 230.899C264.991 230.123 261.557 229.68 257.901 229.68C254.687 229.68 251.364 230.013 248.704 230.567C246.488 231.01 244.937 232.45 244.605 234.112C244.273 235.663 245.048 237.104 246.599 238.211C247.929 239.098 250.588 240.095 255.463 239.763V240.317C254.687 240.095 253.912 240.206 253.247 240.206Z" fill="black"/>
<path d="M275.407 131.292C254.134 138.051 245.824 126.085 245.824 113.897H254.245C254.245 113.897 260.449 100.934 278.842 103.039C298.12 105.144 307.759 135.06 285.933 147.58C285.489 147.026 275.407 131.292 275.407 131.292Z" fill="#D3D5D7"/>
<path d="M258.787 123.869H291.805C291.805 123.869 296.126 159.546 275.296 159.546C256.128 159.435 258.787 123.869 258.787 123.869Z" fill="white"/>
<path d="M292.026 123.869V123.647H258.455V123.869C258.455 123.98 258.233 127.636 258.455 132.622C258.898 139.935 260.449 150.128 265.546 155.668C266.765 156.997 268.205 157.994 269.645 158.659C269.756 158.659 269.867 158.77 269.867 158.77C269.978 158.77 270.089 158.881 270.089 158.881C271.64 159.435 273.302 159.767 275.074 159.767C279.506 159.767 283.052 158.216 285.822 155.114C286.043 154.892 286.265 154.67 286.376 154.338C286.486 154.227 286.597 154.116 286.597 154.006C286.708 153.895 286.819 153.784 286.819 153.673C288.813 150.793 290.143 147.247 290.918 143.591C293.245 134.062 292.026 123.98 292.026 123.869ZM286.597 153.452C286.265 153.895 285.932 154.227 285.6 154.67C282.941 157.662 279.506 159.213 275.185 159.213C273.412 159.213 271.861 158.881 270.31 158.327C270.199 158.327 270.089 158.216 270.089 158.216C269.978 158.216 269.867 158.105 269.867 158.105C268.427 157.44 267.208 156.554 265.989 155.224C261.003 149.795 259.452 139.935 259.009 132.733C258.787 128.412 258.898 125.088 259.009 124.201H291.472C291.583 125.863 292.469 135.503 290.475 144.256C289.81 147.358 288.702 150.349 287.04 152.787C286.93 152.898 286.93 153.009 286.819 153.119C286.708 153.23 286.708 153.341 286.597 153.452Z" fill="black"/>
<path d="M276.183 150.017C275.185 150.017 274.41 149.685 273.856 149.131L274.299 148.688C275.075 149.463 276.404 149.685 277.955 149.131C279.95 148.466 282.276 146.472 282.609 144.145L283.163 144.256C282.83 146.804 280.393 148.909 278.177 149.685C277.401 149.906 276.736 150.017 276.183 150.017Z" fill="#D3D5D7"/>
<path d="M271.418 208.85H245.159V214.501H271.418V208.85Z" fill="white"/>
<path d="M244.827 208.629V214.833H271.64V208.629H244.827V208.629ZM271.086 209.183V214.279H245.381V209.183H271.086Z" fill="black"/>
<defs>
<filter id="filter0_d_102_28" x="119.239" y="42.4993" width="58.5052" height="58.5029" filterUnits="userSpaceOnUse" color-interpolation-filters="sRGB">
<feFlood flood-opacity="0" result="BackgroundImageFix"/>
<feColorMatrix in="SourceAlpha" type="matrix" values="0 0 0 0 0 0 0 0 0 0 0 0 0 0 0 0 0 0 127 0" result="hardAlpha"/>
<feOffset dy="4"/>
<feGaussianBlur stdDeviation="10"/>
<feComposite in2="hardAlpha" operator="out"/>
<feColorMatrix type="matrix" values="0 0 0 0 0.988235 0 0 0 0 0.729412 0 0 0 0 0.156863 0 0 0 1 0"/>
<feBlend mode="normal" in2="BackgroundImageFix" result="effect1_dropShadow_102_28"/>
<feBlend mode="normal" in="SourceGraphic" in2="effect1_dropShadow_102_28" result="shape"/>
</filter>
</defs>
</svg>
